<svg width="285" height="60" viewBox="0 0 285 60" fill="none" xmlns="http://www.w3.org/2000/svg">
<path d="M85.8 20.8H86.62C86.6733 21.0133 86.72 21.2733 86.76 21.58C86.8133 21.8733 86.8533 22.1933 86.88 22.54C86.92 22.8733 86.9467 23.2067 86.96 23.54C86.9733 23.8733 86.98 24.1733 86.98 24.44C86.5133 24.7333 85.9267 24.94 85.22 25.06C84.5267 25.18 83.8133 25.24 83.08 25.24C81.9733 25.24 80.9667 25.1067 80.06 24.84C79.1667 24.56 78.4 24.1267 77.76 23.54C77.1333 22.94 76.6467 22.1867 76.3 21.28C75.9533 20.36 75.78 19.26 75.78 17.98C75.78 16.7133 75.9667 15.6267 76.34 14.72C76.7267 13.8 77.24 13.0467 77.88 12.46C78.52 11.8733 79.26 11.4467 80.1 11.18C80.9533 10.9 81.8467 10.76 82.78 10.76C83.66 10.76 84.4533 10.8267 85.16 10.96C85.88 11.08 86.4667 11.2467 86.92 11.46C86.92 11.6733 86.9067 11.9467 86.88 12.28C86.8667 12.6133 86.8333 12.9667 86.78 13.34C86.74 13.7 86.6867 14.06 86.62 14.42C86.5667 14.7667 86.5133 15.06 86.46 15.3H85.62L84.52 12.28C84.4 12.2133 84.2067 12.16 83.94 12.12C83.6733 12.08 83.4 12.06 83.12 12.06C82.5733 12.06 82.06 12.1733 81.58 12.4C81.1 12.6133 80.6733 12.96 80.3 13.44C79.9267 13.92 79.6333 14.54 79.42 15.3C79.2067 16.0467 79.1 16.9467 79.1 18C79.1 19.9067 79.48 21.3733 80.24 22.4C81 23.4267 82.0333 23.94 83.34 23.94C83.7133 23.94 84.0267 23.9133 84.28 23.86C84.5467 23.7933 84.7267 23.7067 84.82 23.6L85.8 20.8ZM97.4469 22.1C97.4469 22.3933 97.4469 22.6467 97.4469 22.86C97.4602 23.0733 97.4802 23.3 97.5069 23.54L98.8869 23.74V24.44C98.7269 24.52 98.5069 24.6 98.2269 24.68C97.9602 24.76 97.6735 24.84 97.3669 24.92C97.0735 24.9867 96.7802 25.04 96.4869 25.08C96.1935 25.1333 95.9335 25.1733 95.7069 25.2H95.0269C94.8935 24.8933 94.8135 24.5867 94.7869 24.28C94.7602 23.9733 94.7402 23.6 94.7269 23.16H94.6269C94.5602 23.4267 94.4469 23.6867 94.2869 23.94C94.1269 24.18 93.9202 24.4 93.6669 24.6C93.4269 24.7867 93.1402 24.94 92.8069 25.06C92.4735 25.18 92.1002 25.24 91.6869 25.24C91.2469 25.24 90.8402 25.1733 90.4669 25.04C90.0935 24.9067 89.7669 24.72 89.4869 24.48C89.2069 24.24 88.9869 23.9533 88.8269 23.62C88.6669 23.2733 88.5869 22.8867 88.5869 22.46C88.5869 21.86 88.7002 21.3667 88.9269 20.98C89.1535 20.5933 89.5069 20.28 89.9869 20.04C90.4802 19.7867 91.1069 19.6 91.8669 19.48C92.6402 19.36 93.5735 19.2733 94.6669 19.22C94.7735 18.0733 94.7269 17.2333 94.5269 16.7C94.3269 16.1667 93.8935 15.9 93.2269 15.9C92.8135 15.9 92.4335 15.9667 92.0869 16.1L91.1469 18.5H90.2669C90.1602 18.34 90.0535 18.16 89.9469 17.96C89.8535 17.7467 89.7602 17.5267 89.6669 17.3C89.5869 17.06 89.5135 16.82 89.4469 16.58C89.3935 16.34 89.3535 16.1067 89.3269 15.88C89.8335 15.5333 90.4869 15.26 91.2869 15.06C92.0869 14.86 92.9335 14.76 93.8269 14.76C94.5869 14.76 95.2069 14.8467 95.6869 15.02C96.1669 15.18 96.5402 15.4067 96.8069 15.7C97.0869 15.98 97.2802 16.3133 97.3869 16.7C97.4935 17.0867 97.5469 17.5 97.5469 17.94C97.5469 18.74 97.5269 19.4667 97.4869 20.12C97.4602 20.76 97.4469 21.42 97.4469 22.1ZM92.9469 23.64C93.2269 23.64 93.4669 23.5867 93.6669 23.48C93.8669 23.3733 94.0335 23.2467 94.1669 23.1C94.3135 22.9533 94.4202 22.7933 94.4869 22.62C94.5669 22.4467 94.6269 22.2933 94.6669 22.16V20.16C94.0402 20.1733 93.5269 20.2133 93.1269 20.28C92.7269 20.3467 92.4135 20.46 92.1869 20.62C91.9602 20.7667 91.8002 20.96 91.7069 21.2C91.6269 21.4267 91.5869 21.7067 91.5869 22.04C91.5869 22.5467 91.7069 22.94 91.9469 23.22C92.1869 23.5 92.5202 23.64 92.9469 23.64ZM109.8 29H104.36V28.22C104.733 28.0067 105.173 27.8467 105.68 27.74V24.58C105.52 24.78 105.273 24.94 104.94 25.06C104.606 25.18 104.273 25.24 103.94 25.24C103.326 25.24 102.76 25.1467 102.24 24.96C101.733 24.76 101.293 24.46 100.92 24.06C100.546 23.66 100.253 23.1533 100.04 22.54C99.8397 21.9267 99.7397 21.2 99.7397 20.36C99.7397 19.4 99.8464 18.5733 100.06 17.88C100.273 17.1733 100.573 16.5933 100.96 16.14C101.346 15.6733 101.806 15.3267 102.34 15.1C102.886 14.8733 103.493 14.76 104.16 14.76C104.493 14.76 104.8 14.8133 105.08 14.92C105.36 15.0133 105.56 15.14 105.68 15.3V11.62L104.16 11.46V10.68C104.346 10.6 104.6 10.52 104.92 10.44C105.24 10.36 105.573 10.2867 105.92 10.22C106.28 10.1533 106.626 10.1 106.96 10.06C107.293 10.0067 107.573 9.97333 107.8 9.96H108.48V15.42C108.666 15.22 108.926 15.06 109.26 14.94C109.606 14.82 109.966 14.76 110.34 14.76C110.94 14.76 111.486 14.8533 111.98 15.04C112.486 15.2267 112.92 15.5133 113.28 15.9C113.64 16.2867 113.92 16.7733 114.12 17.36C114.32 17.9333 114.42 18.6133 114.42 19.4C114.42 20.4133 114.306 21.2867 114.08 22.02C113.866 22.7533 113.566 23.36 113.18 23.84C112.793 24.32 112.333 24.6733 111.8 24.9C111.266 25.1267 110.693 25.24 110.08 25.24C109.786 25.24 109.486 25.1933 109.18 25.1C108.873 25.02 108.64 24.8933 108.48 24.72V27.74C108.973 27.82 109.413 27.98 109.8 28.22V29ZM104.64 23.98C104.866 23.98 105.066 23.9533 105.24 23.9C105.413 23.8333 105.593 23.7067 105.78 23.52V16.36C105.62 16.2533 105.453 16.1733 105.28 16.12C105.106 16.0533 104.886 16.02 104.62 16.02C104.353 16.02 104.106 16.08 103.88 16.2C103.653 16.32 103.453 16.52 103.28 16.8C103.106 17.0667 102.973 17.4267 102.88 17.88C102.786 18.3333 102.74 18.9 102.74 19.58C102.74 20.4867 102.786 21.2267 102.88 21.8C102.973 22.36 103.1 22.8067 103.26 23.14C103.433 23.46 103.633 23.68 103.86 23.8C104.1 23.92 104.36 23.98 104.64 23.98ZM109.5 16.02C109.273 16.02 109.073 16.0533 108.9 16.12C108.74 16.1733 108.566 16.28 108.38 16.44V23.62C108.54 23.7533 108.706 23.8467 108.88 23.9C109.053 23.9533 109.273 23.98 109.54 23.98C109.78 23.98 110.013 23.92 110.24 23.8C110.466 23.68 110.666 23.4733 110.84 23.18C111.013 22.8733 111.153 22.4733 111.26 21.98C111.366 21.4867 111.42 20.86 111.42 20.1C111.42 19.2867 111.373 18.6133 111.28 18.08C111.2 17.5467 111.08 17.1333 110.92 16.84C110.76 16.5333 110.56 16.32 110.32 16.2C110.08 16.08 109.806 16.02 109.5 16.02ZM124.4 22.1C124.4 22.3933 124.4 22.6467 124.4 22.86C124.413 23.0733 124.433 23.3 124.46 23.54L125.84 23.74V24.44C125.68 24.52 125.46 24.6 125.18 24.68C124.913 24.76 124.627 24.84 124.32 24.92C124.027 24.9867 123.733 25.04 123.44 25.08C123.147 25.1333 122.887 25.1733 122.66 25.2H121.98C121.847 24.8933 121.767 24.5867 121.74 24.28C121.713 23.9733 121.693 23.6 121.68 23.16H121.58C121.513 23.4267 121.4 23.6867 121.24 23.94C121.08 24.18 120.873 24.4 120.62 24.6C120.38 24.7867 120.093 24.94 119.76 25.06C119.427 25.18 119.053 25.24 118.64 25.24C118.2 25.24 117.793 25.1733 117.42 25.04C117.047 24.9067 116.72 24.72 116.44 24.48C116.16 24.24 115.94 23.9533 115.78 23.62C115.62 23.2733 115.54 22.8867 115.54 22.46C115.54 21.86 115.653 21.3667 115.88 20.98C116.107 20.5933 116.46 20.28 116.94 20.04C117.433 19.7867 118.06 19.6 118.82 19.48C119.593 19.36 120.527 19.2733 121.62 19.22C121.727 18.0733 121.68 17.2333 121.48 16.7C121.28 16.1667 120.847 15.9 120.18 15.9C119.767 15.9 119.387 15.9667 119.04 16.1L118.1 18.5H117.22C117.113 18.34 117.007 18.16 116.9 17.96C116.807 17.7467 116.713 17.5267 116.62 17.3C116.54 17.06 116.467 16.82 116.4 16.58C116.347 16.34 116.307 16.1067 116.28 15.88C116.787 15.5333 117.44 15.26 118.24 15.06C119.04 14.86 119.887 14.76 120.78 14.76C121.54 14.76 122.16 14.8467 122.64 15.02C123.12 15.18 123.493 15.4067 123.76 15.7C124.04 15.98 124.233 16.3133 124.34 16.7C124.447 17.0867 124.5 17.5 124.5 17.94C124.5 18.74 124.48 19.4667 124.44 20.12C124.413 20.76 124.4 21.42 124.4 22.1ZM119.9 23.64C120.18 23.64 120.42 23.5867 120.62 23.48C120.82 23.3733 120.987 23.2467 121.12 23.1C121.267 22.9533 121.373 22.7933 121.44 22.62C121.52 22.4467 121.58 22.2933 121.62 22.16V20.16C120.993 20.1733 120.48 20.2133 120.08 20.28C119.68 20.3467 119.367 20.46 119.14 20.62C118.913 20.7667 118.753 20.96 118.66 21.2C118.58 21.4267 118.54 21.7067 118.54 22.04C118.54 22.5467 118.66 22.94 118.9 23.22C119.14 23.5 119.473 23.64 119.9 23.64ZM132.073 29H126.553V28.22C127.006 28.0067 127.446 27.8467 127.873 27.74V16.42L126.553 16.26V15.48C126.766 15.3867 127.026 15.3 127.333 15.22C127.653 15.14 127.979 15.0733 128.313 15.02C128.646 14.9533 128.966 14.9 129.273 14.86C129.593 14.82 129.859 14.7867 130.073 14.76H130.753V17H130.773C130.999 16.36 131.353 15.8267 131.833 15.4C132.326 14.9733 133.006 14.76 133.873 14.76C134.459 14.76 134.986 14.86 135.453 15.06C135.933 15.2467 136.333 15.5467 136.653 15.96C136.986 16.36 137.239 16.88 137.413 17.52C137.599 18.1467 137.693 18.9 137.693 19.78C137.693 20.62 137.573 21.38 137.333 22.06C137.106 22.74 136.773 23.3133 136.333 23.78C135.906 24.2467 135.379 24.6067 134.753 24.86C134.139 25.1133 133.439 25.24 132.653 25.24C132.199 25.24 131.839 25.2067 131.573 25.14C131.319 25.0867 131.046 24.9867 130.753 24.84V27.74C130.966 27.7667 131.179 27.8133 131.393 27.88C131.606 27.96 131.833 28.0733 132.073 28.22V29ZM132.713 16.36C132.259 16.36 131.853 16.52 131.493 16.84C131.146 17.16 130.899 17.6533 130.753 18.32V23.64C130.966 23.8 131.193 23.92 131.433 24C131.673 24.0667 131.986 24.1 132.373 24.1C133.133 24.1 133.693 23.7333 134.053 23C134.413 22.2667 134.593 21.1933 134.593 19.78C134.593 18.6867 134.453 17.8467 134.173 17.26C133.906 16.66 133.419 16.36 132.713 16.36ZM138.9 15H144.22V15.78C144.074 15.86 143.9 15.94 143.7 16.02C143.514 16.1 143.287 16.18 143.02 16.26V20.76L142.8 22.62H142.9L143.68 21.12L147.34 15H151.12V15.78C150.694 16.02 150.254 16.18 149.8 16.26V23.74C150.054 23.8067 150.294 23.88 150.52 23.96C150.747 24.0267 150.947 24.1133 151.12 24.22V25H145.8V24.22C146.174 24.0067 146.574 23.8467 147 23.74V19.02L147.2 17.44H147.1L146.34 18.94L142.72 25H138.9V24.22C139.127 24.1133 139.347 24.0267 139.56 23.96C139.774 23.88 139.994 23.8067 140.22 23.74V16.26C139.7 16.18 139.26 16.02 138.9 15.78V15ZM167.19 25H160.31V24.24C160.577 24.1333 160.877 24.0267 161.21 23.92C161.557 23.8 161.903 23.7133 162.25 23.66V12.3H159.93L158.65 15.72H157.83C157.777 15.4533 157.723 15.1133 157.67 14.7C157.617 14.2867 157.57 13.86 157.53 13.42C157.49 12.98 157.457 12.5467 157.43 12.12C157.403 11.68 157.39 11.3067 157.39 11H170.13C170.13 11.32 170.117 11.6933 170.09 12.12C170.063 12.5467 170.03 12.98 169.99 13.42C169.95 13.86 169.903 14.2867 169.85 14.7C169.797 15.1 169.743 15.44 169.69 15.72H168.85L167.57 12.3H165.25V23.66C165.597 23.7267 165.937 23.8067 166.27 23.9C166.617 23.9933 166.923 24.1067 167.19 24.24V25ZM180.81 12.34C180.49 12.2733 180.21 12.1933 179.97 12.1C179.73 11.9933 179.496 11.88 179.27 11.76V11H184.11V11.76C183.963 11.8667 183.763 11.9733 183.51 12.08C183.27 12.1733 182.996 12.26 182.69 12.34L178.87 20.98C178.23 22.4467 177.563 23.54 176.87 24.26C176.176 24.9667 175.436 25.2467 174.65 25.1C174.543 24.9933 174.43 24.8333 174.31 24.62C174.203 24.3933 174.096 24.16 173.99 23.92C173.896 23.6667 173.816 23.4267 173.75 23.2C173.683 22.96 173.643 22.76 173.63 22.6L174.19 21.8L176.57 22.54C176.676 22.42 176.776 22.2733 176.87 22.1C176.963 21.9267 177.05 21.7333 177.13 21.52L171.81 12.34C171.556 12.2733 171.31 12.1933 171.07 12.1C170.843 11.9933 170.63 11.88 170.43 11.76V11H176.67V11.76C176.27 12 175.763 12.1933 175.15 12.34L177.97 17.76L178.39 19.04H178.43L178.83 17.72L180.81 12.34ZM189.142 23.66C189.502 23.7133 189.855 23.7933 190.202 23.9C190.562 23.9933 190.882 24.1067 191.162 24.24V25H184.502V24.24C184.755 24.0933 185.022 23.9733 185.302 23.88C185.595 23.7867 185.875 23.7133 186.142 23.66V12.34C185.835 12.2867 185.542 12.2133 185.262 12.12C184.982 12.0133 184.728 11.8933 184.502 11.76V11H187.022C187.555 11 188.162 10.9733 188.842 10.92C189.535 10.8667 190.168 10.84 190.742 10.84C191.448 10.84 192.135 10.9133 192.802 11.06C193.482 11.1933 194.082 11.4267 194.602 11.76C195.135 12.0933 195.562 12.54 195.882 13.1C196.202 13.6467 196.362 14.3333 196.362 15.16C196.362 15.9467 196.202 16.6267 195.882 17.2C195.575 17.7733 195.162 18.2467 194.642 18.62C194.122 18.9933 193.522 19.2733 192.842 19.46C192.162 19.6333 191.462 19.72 190.742 19.72C190.675 19.72 190.568 19.72 190.422 19.72C190.275 19.72 190.115 19.72 189.942 19.72C189.782 19.7067 189.622 19.7 189.462 19.7C189.315 19.6867 189.208 19.6733 189.142 19.66V23.66ZM190.222 12.14C189.955 12.14 189.742 12.1533 189.582 12.18C189.435 12.1933 189.288 12.22 189.142 12.26V18.34C189.262 18.38 189.442 18.4067 189.682 18.42C189.922 18.42 190.115 18.42 190.262 18.42C190.622 18.42 190.968 18.36 191.302 18.24C191.635 18.12 191.928 17.9333 192.182 17.68C192.448 17.4267 192.662 17.1 192.822 16.7C192.982 16.3 193.062 15.82 193.062 15.26C193.062 14.1933 192.802 13.4067 192.282 12.9C191.762 12.3933 191.075 12.14 190.222 12.14ZM203.315 25H197.295V24.24C197.548 24.1067 197.815 23.9867 198.095 23.88C198.375 23.7733 198.655 23.7 198.935 23.66V12.34C198.668 12.2733 198.388 12.2 198.095 12.12C197.801 12.0267 197.535 11.9067 197.295 11.76V11H203.315V11.76C203.115 11.88 202.888 11.9933 202.635 12.1C202.381 12.2067 202.108 12.2867 201.815 12.34V19.94L201.615 21.5L202.595 19.86L207.635 12.82V12.34C207.008 12.1933 206.481 12 206.055 11.76V11H212.075V11.76C211.848 11.9067 211.588 12.0267 211.295 12.12C211.015 12.2 210.728 12.2733 210.435 12.34V23.66C210.741 23.7133 211.028 23.7933 211.295 23.9C211.575 23.9933 211.835 24.1067 212.075 24.24V25H206.055V24.24C206.241 24.1467 206.461 24.0467 206.715 23.94C206.981 23.82 207.261 23.7267 207.555 23.66V16.08L207.755 14.5L206.855 16.08L201.735 23.22V23.66C202.041 23.7267 202.328 23.8133 202.595 23.92C202.861 24.0267 203.101 24.1333 203.315 24.24V25ZM223.28 20.8H224.1C224.154 21.0133 224.2 21.2733 224.24 21.58C224.294 21.8733 224.334 22.1933 224.36 22.54C224.4 22.8733 224.427 23.2067 224.44 23.54C224.454 23.8733 224.46 24.1733 224.46 24.44C223.994 24.7333 223.407 24.94 222.7 25.06C222.007 25.18 221.294 25.24 220.56 25.24C219.454 25.24 218.447 25.1067 217.54 24.84C216.647 24.56 215.88 24.1267 215.24 23.54C214.614 22.94 214.127 22.1867 213.78 21.28C213.434 20.36 213.26 19.26 213.26 17.98C213.26 16.7133 213.447 15.6267 213.82 14.72C214.207 13.8 214.72 13.0467 215.36 12.46C216 11.8733 216.74 11.4467 217.58 11.18C218.434 10.9 219.327 10.76 220.26 10.76C221.14 10.76 221.934 10.8267 222.64 10.96C223.36 11.08 223.947 11.2467 224.4 11.46C224.4 11.6733 224.387 11.9467 224.36 12.28C224.347 12.6133 224.314 12.9667 224.26 13.34C224.22 13.7 224.167 14.06 224.1 14.42C224.047 14.7667 223.994 15.06 223.94 15.3H223.1L222 12.28C221.88 12.2133 221.687 12.16 221.42 12.12C221.154 12.08 220.88 12.06 220.6 12.06C220.054 12.06 219.54 12.1733 219.06 12.4C218.58 12.6133 218.154 12.96 217.78 13.44C217.407 13.92 217.114 14.54 216.9 15.3C216.687 16.0467 216.58 16.9467 216.58 18C216.58 19.9067 216.96 21.3733 217.72 22.4C218.48 23.4267 219.514 23.94 220.82 23.94C221.194 23.94 221.507 23.9133 221.76 23.86C222.027 23.7933 222.207 23.7067 222.3 23.6L223.28 20.8ZM235.08 25H228.2V24.24C228.467 24.1333 228.767 24.0267 229.1 23.92C229.447 23.8 229.794 23.7133 230.14 23.66V12.3H227.82L226.54 15.72H225.72C225.667 15.4533 225.614 15.1133 225.56 14.7C225.507 14.2867 225.46 13.86 225.42 13.42C225.38 12.98 225.347 12.5467 225.32 12.12C225.294 11.68 225.28 11.3067 225.28 11H238.02C238.02 11.32 238.007 11.6933 237.98 12.12C237.954 12.5467 237.92 12.98 237.88 13.42C237.84 13.86 237.794 14.2867 237.74 14.7C237.687 15.1 237.634 15.44 237.58 15.72H236.74L235.46 12.3H233.14V23.66C233.487 23.7267 233.827 23.8067 234.16 23.9C234.507 23.9933 234.814 24.1067 235.08 24.24V25ZM244.74 25H238.72V24.24C238.974 24.1067 239.24 23.9867 239.52 23.88C239.8 23.7733 240.08 23.7 240.36 23.66V12.34C240.094 12.2733 239.814 12.2 239.52 12.12C239.227 12.0267 238.96 11.9067 238.72 11.76V11H244.74V11.76C244.54 11.88 244.314 11.9933 244.06 12.1C243.807 12.2067 243.534 12.2867 243.24 12.34V19.94L243.04 21.5L244.02 19.86L249.06 12.82V12.34C248.434 12.1933 247.907 12 247.48 11.76V11H253.5V11.76C253.274 11.9067 253.014 12.0267 252.72 12.12C252.44 12.2 252.154 12.2733 251.86 12.34V23.66C252.167 23.7133 252.454 23.7933 252.72 23.9C253 23.9933 253.26 24.1067 253.5 24.24V25H247.48V24.24C247.667 24.1467 247.887 24.0467 248.14 23.94C248.407 23.82 248.687 23.7267 248.98 23.66V16.08L249.18 14.5L248.28 16.08L243.16 23.22V23.66C243.467 23.7267 243.754 23.8133 244.02 23.92C244.287 24.0267 244.527 24.1333 244.74 24.24V25ZM261.886 11H267.246V11.76C267.02 11.9067 266.76 12.0333 266.466 12.14C266.173 12.2333 265.906 12.3 265.666 12.34L261.866 17.16C262.173 17.5867 262.533 18.0733 262.946 18.62C263.36 19.1533 263.8 19.7133 264.266 20.3C264.733 20.8733 265.213 21.46 265.706 22.06C266.2 22.6467 266.68 23.2067 267.146 23.74L268.106 24.32V25H264.626L263.826 24.44C263.506 24.04 263.166 23.6 262.806 23.12C262.46 22.6267 262.113 22.12 261.766 21.6C261.42 21.0667 261.08 20.5333 260.746 20C260.413 19.4667 260.1 18.9467 259.806 18.44H258.946V23.66C259.24 23.7133 259.506 23.7933 259.746 23.9C259.986 24.0067 260.193 24.12 260.366 24.24V25H254.306V24.24C254.573 24.1067 254.846 23.9933 255.126 23.9C255.406 23.7933 255.68 23.7133 255.946 23.66V12.34C255.64 12.3 255.34 12.2267 255.046 12.12C254.766 12.0133 254.52 11.8933 254.306 11.76V11H260.366V11.76C260.193 11.8667 259.98 11.9733 259.726 12.08C259.486 12.1867 259.226 12.2733 258.946 12.34V17.42L260.126 17.14L263.346 12.34C263.08 12.2867 262.813 12.2067 262.546 12.1C262.293 11.98 262.073 11.8667 261.886 11.76V11Z" fill="white"/>
<path d="M85.3271 36.5918H81.2139V48H79.5352V36.5918H75.4307V35.2031H85.3271V36.5918ZM89.4492 45.6182L91.6641 38.4902H93.4043L89.5811 49.4678C88.9893 51.0498 88.0488 51.8408 86.7598 51.8408L86.4521 51.8145L85.8457 51.7002V50.3818L86.2852 50.417C86.8359 50.417 87.2637 50.3057 87.5684 50.083C87.8789 49.8604 88.1338 49.4531 88.333 48.8613L88.6934 47.8945L85.3008 38.4902H87.0762L89.4492 45.6182ZM102.896 43.3506C102.896 44.7979 102.565 45.9639 101.903 46.8486C101.241 47.7334 100.345 48.1758 99.2139 48.1758C98.0596 48.1758 97.1514 47.8096 96.4893 47.0771V51.6562H94.8633V38.4902H96.3486L96.4277 39.5449C97.0898 38.7246 98.0098 38.3145 99.1875 38.3145C100.33 38.3145 101.232 38.7451 101.895 39.6064C102.562 40.4678 102.896 41.666 102.896 43.2012V43.3506ZM101.271 43.166C101.271 42.0938 101.042 41.2471 100.585 40.626C100.128 40.0049 99.501 39.6943 98.7041 39.6943C97.7197 39.6943 96.9814 40.1309 96.4893 41.0039V45.5479C96.9756 46.415 97.7197 46.8486 98.7217 46.8486C99.501 46.8486 100.119 46.541 100.576 45.9258C101.039 45.3047 101.271 44.3848 101.271 43.166ZM110.842 48C110.748 47.8125 110.672 47.4785 110.613 46.998C109.857 47.7832 108.955 48.1758 107.906 48.1758C106.969 48.1758 106.198 47.9121 105.595 47.3848C104.997 46.8516 104.698 46.1777 104.698 45.3633C104.698 44.373 105.073 43.6055 105.823 43.0605C106.579 42.5098 107.64 42.2344 109.005 42.2344H110.587V41.4873C110.587 40.9189 110.417 40.4678 110.077 40.1338C109.737 39.7939 109.236 39.624 108.574 39.624C107.994 39.624 107.508 39.7705 107.115 40.0635C106.723 40.3564 106.526 40.7109 106.526 41.127H104.892C104.892 40.6523 105.059 40.1953 105.393 39.7559C105.732 39.3105 106.189 38.959 106.764 38.7012C107.344 38.4434 107.979 38.3145 108.671 38.3145C109.767 38.3145 110.625 38.5898 111.246 39.1406C111.867 39.6855 112.189 40.4385 112.213 41.3994V45.7764C112.213 46.6494 112.324 47.3438 112.547 47.8594V48H110.842ZM108.144 46.7607C108.653 46.7607 109.137 46.6289 109.594 46.3652C110.051 46.1016 110.382 45.7588 110.587 45.3369V43.3857H109.312C107.32 43.3857 106.324 43.9688 106.324 45.1348C106.324 45.6445 106.494 46.043 106.834 46.3301C107.174 46.6172 107.61 46.7607 108.144 46.7607ZM120.905 39.835H116.52V48H114.885V38.4902H120.905V39.835ZM126.091 48.1758C124.802 48.1758 123.753 47.7539 122.944 46.9102C122.136 46.0605 121.731 44.9268 121.731 43.5088V43.21C121.731 42.2666 121.91 41.4258 122.268 40.6875C122.631 39.9434 123.135 39.3633 123.779 38.9473C124.43 38.5254 125.133 38.3145 125.889 38.3145C127.125 38.3145 128.086 38.7217 128.771 39.5361C129.457 40.3506 129.8 41.5166 129.8 43.0342V43.7109H123.357C123.381 44.6484 123.653 45.4072 124.175 45.9873C124.702 46.5615 125.37 46.8486 126.179 46.8486C126.753 46.8486 127.239 46.7314 127.638 46.4971C128.036 46.2627 128.385 45.9521 128.684 45.5654L129.677 46.3389C128.88 47.5635 127.685 48.1758 126.091 48.1758ZM125.889 39.6504C125.232 39.6504 124.682 39.8906 124.236 40.3711C123.791 40.8457 123.516 41.5137 123.41 42.375H128.174V42.252C128.127 41.4258 127.904 40.7871 127.506 40.3359C127.107 39.8789 126.568 39.6504 125.889 39.6504ZM139.459 48H137.833V43.9395H133.465V48H131.83V38.4902H133.465V42.6123H137.833V38.4902H139.459V48ZM149.145 39.8086H145.954V48H144.328V39.8086H141.199V38.4902H149.145V39.8086ZM153.838 46.8486C154.418 46.8486 154.925 46.6729 155.358 46.3213C155.792 45.9697 156.032 45.5303 156.079 45.0029H157.617C157.588 45.5479 157.4 46.0664 157.055 46.5586C156.709 47.0508 156.246 47.4434 155.666 47.7363C155.092 48.0293 154.482 48.1758 153.838 48.1758C152.543 48.1758 151.512 47.7451 150.744 46.8838C149.982 46.0166 149.602 44.833 149.602 43.333V43.0605C149.602 42.1348 149.771 41.3115 150.111 40.5908C150.451 39.8701 150.938 39.3105 151.57 38.9121C152.209 38.5137 152.962 38.3145 153.829 38.3145C154.896 38.3145 155.78 38.6338 156.483 39.2725C157.192 39.9111 157.57 40.7402 157.617 41.7598H156.079C156.032 41.1445 155.798 40.6406 155.376 40.248C154.96 39.8496 154.444 39.6504 153.829 39.6504C153.003 39.6504 152.361 39.9492 151.904 40.5469C151.453 41.1387 151.228 41.9971 151.228 43.1221V43.4297C151.228 44.5254 151.453 45.3691 151.904 45.9609C152.355 46.5527 153 46.8486 153.838 46.8486ZM166.512 39.8086H163.321V48H161.695V39.8086H158.566V38.4902H166.512V39.8086ZM168.243 48V38.4902H171.952C173.218 38.4902 174.188 38.7129 174.861 39.1582C175.541 39.5977 175.881 40.2451 175.881 41.1006C175.881 41.54 175.749 41.9385 175.485 42.2959C175.222 42.6475 174.832 42.917 174.316 43.1045C174.891 43.2393 175.351 43.5029 175.696 43.8955C176.048 44.2881 176.224 44.7568 176.224 45.3018C176.224 46.1748 175.901 46.8428 175.257 47.3057C174.618 47.7686 173.713 48 172.541 48H168.243ZM169.869 43.8252V46.6904H172.559C173.238 46.6904 173.745 46.5645 174.079 46.3125C174.419 46.0605 174.589 45.7061 174.589 45.249C174.589 44.2998 173.892 43.8252 172.497 43.8252H169.869ZM169.869 42.5244H171.97C173.493 42.5244 174.255 42.0791 174.255 41.1885C174.255 40.2979 173.534 39.8379 172.093 39.8086H169.869V42.5244ZM177.946 43.1572C177.946 42.2256 178.128 41.3877 178.491 40.6436C178.86 39.8994 179.37 39.3252 180.021 38.9209C180.677 38.5166 181.424 38.3145 182.262 38.3145C183.557 38.3145 184.603 38.7627 185.399 39.6592C186.202 40.5557 186.604 41.748 186.604 43.2363V43.3506C186.604 44.2764 186.425 45.1084 186.067 45.8467C185.716 46.5791 185.209 47.1504 184.547 47.5605C183.891 47.9707 183.135 48.1758 182.279 48.1758C180.99 48.1758 179.944 47.7275 179.142 46.8311C178.345 45.9346 177.946 44.748 177.946 43.2715V43.1572ZM179.581 43.3506C179.581 44.4053 179.824 45.252 180.311 45.8906C180.803 46.5293 181.459 46.8486 182.279 46.8486C183.105 46.8486 183.762 46.5264 184.248 45.8818C184.734 45.2314 184.978 44.3232 184.978 43.1572C184.978 42.1143 184.729 41.2705 184.23 40.626C183.738 39.9756 183.082 39.6504 182.262 39.6504C181.459 39.6504 180.812 39.9697 180.319 40.6084C179.827 41.2471 179.581 42.1611 179.581 43.3506Z" fill="white"/>
<circle cx="30" cy="30" r="29.5" stroke="white"/>
<path d="M63.2078 10.5356L61.0769 7.42788L59.2867 5.8765L59.2701 4.60788L58.4212 4L57.3559 6.26637L55.7459 5.22236L55.1886 5.78887L55.8148 7.0446L46.5703 15.8584L32.0115 22.9515L27.644 23.9181L26.6165 24.4447L23.9038 27.9511L22.7772 31.7466L22.5127 33.8448L23.0969 35.0974L23.1586 34.6399L24.1991 30.8548L23.2062 38.4985L22.0798 41.9438L20 52.4316H21.8884L21.3175 51.4826L22.3093 46.4718L26.0545 38.9928L25.3657 41.8043L28.2919 52.4316H30.2819L29.4497 51.3724L28.0537 47.2084L27.4639 40.9549L29.6087 36.0147L30.8934 34.7613L36.845 34.77L37.8978 35.8196L35.9732 50.1469L36.05 52.4316H37.9439L37.2455 51.3825L37.506 45.9273L40.4114 35.9413L40.7681 35.9438L47.1446 52.4316H49.0591L48.0865 51.4382L46.353 46.7498L43.6351 34.9205L44.3556 28.8518L44.0028 27.1587L44.3345 25.9676L56.7052 11.9222L58.5897 11.5542L63.3487 13.2859L63.6867 11.9442L63.2078 10.5356Z" fill="white"/>
</svg>
